<svg width="597" height="393" viewBox="0 0 597 393" fill="none" xmlns="http://www.w3.org/2000/svg">
<path d="M8 339C18.2221 320.26 34.5274 304.416 47.8333 288C81.2299 246.798 116.037 205.537 142.778 159.556C156.753 135.525 174.096 106.117 176 77.5556C176.358 72.1868 175.447 56.0823 175 61.4444C174.009 73.3365 175.154 85.6271 174.722 97.5556C172.925 147.147 164 196.542 164 246.167C164 255.852 164 265.537 164 275.222C164 277.351 163.313 280.955 164.222 283C166.975 289.193 163.603 278.96 163 277" stroke="white" stroke-width="15" stroke-linecap="round"/>
<path d="M151 221C120.766 237.377 87.143 245.986 56 260" stroke="white" stroke-width="15" stroke-linecap="round"/>
<path d="M202 161C202 185.537 199.883 209.608 197.222 234C196.58 239.886 195.513 246.36 196.056 252.333C196.123 253.071 199.351 248.835 200 248" stroke="white" stroke-width="15" stroke-linecap="round"/>
<path d="M260 95C260 120.809 252.112 141.241 237.056 161.944C231.274 169.894 226.838 179.689 219.556 186.389C217.362 188.407 210.072 191.638 212.222 195.111C215.757 200.821 220.571 205.251 223.333 211.556C228.6 223.576 230.084 237.701 232.444 250.444C236.261 271.046 239.123 291.92 243.889 312.333C246.481 323.437 249.355 335.965 254.889 346.111C255.577 347.372 256.431 349.387 257.222 347.278C259.384 341.514 261.955 336.171 265.333 331C266.255 329.589 273.238 322.619 270 321" stroke="white" stroke-width="15" stroke-linecap="round"/>
<path d="M260 251C262.026 253.279 262.494 250.736 263.889 248.222C277.012 224.566 287.451 199.362 299.889 175.333C311.503 152.896 323.414 130.584 336.278 108.833C339.694 103.057 344.027 94.4441 348.889 89.2222C350.436 87.56 350 93.6733 350 95.9444C350 114.26 348.969 132.425 347.278 150.667C344.909 176.222 341.544 201.678 339.111 227.222C338.862 229.842 339.872 231.71 340.5 234.222C341.312 237.471 340.957 241.858 342.444 244.833C343.196 246.337 341.238 241.665 341 240" stroke="white" stroke-width="15" stroke-linecap="round"/>
<path d="M300 206C309.751 201.985 322.795 194 333 194" stroke="white" stroke-width="15" stroke-linecap="round"/>
<path d="M589 9C591.643 5.97926 580.928 9.17359 577 10C518.467 22.3151 458.986 39.0374 405.667 66.6111C396.906 71.1416 372.814 81.6335 376.833 96.0556C380.062 107.641 386.807 119.061 398 124.333C401.846 126.145 408.197 126.148 411.556 128.667C417.304 132.978 411.178 144.263 409 148.056C387.793 184.989 354.092 208.382 318.833 230.778C276.224 257.843 232.14 282.496 189.667 309.778C153.704 332.878 120.425 358.538 87 385" stroke="white" stroke-width="15" stroke-linecap="round"/>
<path d="M435 103C434.488 137.807 426.898 172.41 422.778 206.889C422.705 207.496 421.459 228.835 420 223" stroke="white" stroke-width="15" stroke-linecap="round"/>
<path d="M423 183C427.548 181.239 432.683 180.562 437.389 179.556C460.806 174.547 483.821 168.237 506.667 161.056C526.477 154.828 546.437 148.445 565.667 140.556C568.925 139.219 576.438 137.039 571 135" stroke="white" stroke-width="15" stroke-linecap="round"/>
<path d="M506 92C503.495 102.246 502.318 112.945 500.667 123.333C496.137 151.83 491.393 180.325 488.111 209C486.89 219.669 486.2 230.277 486 241C485.963 242.965 485.974 243.54 485 245" stroke="white" stroke-width="15" stroke-linecap="round"/>
</svg>
