<svg width="329" height="116" viewBox="0 0 329 116" fill="none" xmlns="http://www.w3.org/2000/svg">
<rect width="329" height="116" fill="#1E1E1E"/>
<path d="M2.99999 114C2.99999 90.7099 -0.890256 62.9758 7.44443 40.8889C9.35658 35.8217 11.9759 31.1865 14.5555 26.4444C17.0959 21.7748 18.4283 16.3673 21.6667 12.1111C24.1299 8.87375 30.7161 2.11111 35.5 2.11111C40.5389 2.11111 46.2459 10.452 48.6667 13.8889C58.6895 28.1188 61.3368 44.1514 62.6111 61C63.698 75.3718 63.4119 90.5827 65.7778 104.778C66.2116 107.381 66.1757 109.527 67 112" stroke="white" stroke-width="3" stroke-linecap="round"/>
<path d="M2 77C4.36267 77 6.49419 77.8108 8.83333 77.9444C21.8845 78.6902 34.1892 75.7444 46.7222 72.6111C52.0153 71.2878 57.5463 69 63 69" stroke="white" stroke-width="3" stroke-linecap="round"/>
<path d="M112 31C111.197 51.0826 107 70.662 107 90.8889C107 95.5926 107 100.296 107 105" stroke="white" stroke-width="3" stroke-linecap="round"/>
<path d="M134 27C127.371 41.977 116.948 52.3846 107.444 65.0556C105.273 67.9505 101.783 70.6828 100.222 74C99.9303 74.6204 107.933 77.892 109.056 78.5C115.331 81.8992 126.224 86.5605 128.778 94.2222C130.238 98.6022 136 103.16 136 108" stroke="white" stroke-width="3" stroke-linecap="round"/>
<path d="M150 108C150 94.9988 149.276 82.5192 152 69.4444C154.337 58.2285 159.129 50.7114 164.111 40.8889C167.096 35.0053 168.915 30 176 30C181.54 30 185.463 38.5942 187.778 42.7778C192.72 51.7115 191.715 65.3136 193 75.1111C194.399 85.7819 195 96.2506 195 107" stroke="white" stroke-width="3" stroke-linecap="round"/>
<path d="M153 84C160.399 84 165.448 85.6884 172.667 82.7778C175.858 81.4908 179.958 81.4537 182.556 79C183.725 77.8955 184.373 78 186 78" stroke="white" stroke-width="3" stroke-linecap="round"/>
<path d="M257 29C253.287 29 250.123 26.7938 246 27C237.715 27.4142 231.095 43.1456 231 50C230.886 58.2025 235.231 65.7169 242.222 70.2222C248.422 74.2176 256.216 79.0152 258.389 86.5C260.859 95.0096 257.665 101.762 250.222 106.389C244.177 110.147 236.646 111.392 231 107C226.375 103.403 221.69 100.33 219.611 94.5556C217.815 89.5665 220.564 87.3065 222 83" stroke="white" stroke-width="3" stroke-linecap="round"/>
<path d="M282 30C282.462 54.0402 285 77.9073 285 102" stroke="white" stroke-width="3" stroke-linecap="round"/>
<path d="M288 69C300.992 69 313.985 70 327 70" stroke="white" stroke-width="3" stroke-linecap="round"/>
<path d="M323 33C326.956 51.298 323.886 70.1323 325.222 88.6667C325.452 91.8613 327 94.9934 327 98" stroke="white" stroke-width="3" stroke-linecap="round"/>
</svg>
